<mxfile host="app.diagrams.net" agent="Mozilla/5.0 (Windows NT 10.0; Win64; x64) AppleWebKit/537.36 (KHTML, like Gecko) Chrome/133.0.0.0 Safari/537.36" version="26.0.13">
  <diagram name="Page-1" id="QGjMv8LrLS21k3CkNhZE">
    <mxGraphModel dx="1434" dy="738" grid="1" gridSize="10" guides="1" tooltips="1" connect="1" arrows="1" fold="1" page="1" pageScale="1" pageWidth="827" pageHeight="1169" math="0" shadow="0">
      <root>
        <mxCell id="0" />
        <mxCell id="1" parent="0" />
        <mxCell id="Z_Ibb4aaYZXQ2sxeIjwM-8" style="edgeStyle=orthogonalEdgeStyle;rounded=0;orthogonalLoop=1;jettySize=auto;html=1;entryX=0;entryY=0.5;entryDx=0;entryDy=0;fontSize=13;fontStyle=0" parent="1" source="Xr2quWgWzoAM4Jd-oPhX-6" target="Xr2quWgWzoAM4Jd-oPhX-60" edge="1">
          <mxGeometry relative="1" as="geometry" />
        </mxCell>
        <mxCell id="dpYsJd-5rGW1-rWkGQPt-40" style="edgeStyle=orthogonalEdgeStyle;rounded=0;orthogonalLoop=1;jettySize=auto;html=1;entryX=0;entryY=0.5;entryDx=0;entryDy=0;" parent="1" source="Xr2quWgWzoAM4Jd-oPhX-6" target="dpYsJd-5rGW1-rWkGQPt-35" edge="1">
          <mxGeometry relative="1" as="geometry" />
        </mxCell>
        <mxCell id="dpYsJd-5rGW1-rWkGQPt-41" style="edgeStyle=orthogonalEdgeStyle;rounded=0;orthogonalLoop=1;jettySize=auto;html=1;entryX=0;entryY=0.5;entryDx=0;entryDy=0;" parent="1" source="Xr2quWgWzoAM4Jd-oPhX-6" target="dpYsJd-5rGW1-rWkGQPt-36" edge="1">
          <mxGeometry relative="1" as="geometry" />
        </mxCell>
        <mxCell id="Xr2quWgWzoAM4Jd-oPhX-6" value="&lt;span&gt;FC10 : Gérer la seringue et ses paramètres de fonctionnement&lt;/span&gt;" style="rounded=1;whiteSpace=wrap;html=1;labelBackgroundColor=default;labelBorderColor=none;textShadow=0;fillColor=#dae8fc;strokeColor=#6c8ebf;fontFamily=Helvetica;fontSize=13;fontStyle=0" parent="1" vertex="1">
          <mxGeometry x="319.5" y="1150" width="200" height="60" as="geometry" />
        </mxCell>
        <mxCell id="Xr2quWgWzoAM4Jd-oPhX-67" style="edgeStyle=orthogonalEdgeStyle;rounded=0;orthogonalLoop=1;jettySize=auto;html=1;entryX=0;entryY=0.5;entryDx=0;entryDy=0;fontFamily=Helvetica;fontSize=13;fontStyle=0" parent="1" source="Xr2quWgWzoAM4Jd-oPhX-14" target="Xr2quWgWzoAM4Jd-oPhX-66" edge="1">
          <mxGeometry relative="1" as="geometry" />
        </mxCell>
        <mxCell id="Xr2quWgWzoAM4Jd-oPhX-14" value="&lt;font&gt;FC2 :&amp;nbsp;S’assurer des conditions expérimentales constantes&lt;/font&gt;" style="rounded=1;whiteSpace=wrap;html=1;labelBackgroundColor=default;labelBorderColor=none;textShadow=0;fillColor=#dae8fc;strokeColor=#6c8ebf;fontFamily=Helvetica;fontSize=13;fontStyle=0" parent="1" vertex="1">
          <mxGeometry x="320.5" y="400" width="200" height="60" as="geometry" />
        </mxCell>
        <mxCell id="2b7BFw_aG3oZxj_yZG9y-3" style="edgeStyle=orthogonalEdgeStyle;rounded=0;orthogonalLoop=1;jettySize=auto;html=1;entryX=0;entryY=0.5;entryDx=0;entryDy=0;fontSize=13;fontStyle=0" parent="1" source="Xr2quWgWzoAM4Jd-oPhX-43" target="G61eTxJS0A9dMVI_lam1-6" edge="1">
          <mxGeometry relative="1" as="geometry">
            <Array as="points">
              <mxPoint x="280" y="270" />
              <mxPoint x="280" y="350" />
            </Array>
          </mxGeometry>
        </mxCell>
        <mxCell id="2b7BFw_aG3oZxj_yZG9y-4" style="edgeStyle=orthogonalEdgeStyle;rounded=0;orthogonalLoop=1;jettySize=auto;html=1;entryX=0;entryY=0.5;entryDx=0;entryDy=0;fontSize=13;fontStyle=0" parent="1" source="Xr2quWgWzoAM4Jd-oPhX-43" target="G61eTxJS0A9dMVI_lam1-11" edge="1">
          <mxGeometry relative="1" as="geometry">
            <Array as="points">
              <mxPoint x="280" y="270" />
              <mxPoint x="280" y="510" />
            </Array>
          </mxGeometry>
        </mxCell>
        <mxCell id="2b7BFw_aG3oZxj_yZG9y-5" style="edgeStyle=orthogonalEdgeStyle;rounded=0;orthogonalLoop=1;jettySize=auto;html=1;exitX=1;exitY=0.5;exitDx=0;exitDy=0;entryX=0;entryY=0.5;entryDx=0;entryDy=0;fontSize=13;fontStyle=0" parent="1" source="Xr2quWgWzoAM4Jd-oPhX-43" target="G61eTxJS0A9dMVI_lam1-38" edge="1">
          <mxGeometry relative="1" as="geometry">
            <Array as="points">
              <mxPoint x="280" y="270" />
              <mxPoint x="280" y="590" />
            </Array>
          </mxGeometry>
        </mxCell>
        <mxCell id="2b7BFw_aG3oZxj_yZG9y-6" style="edgeStyle=orthogonalEdgeStyle;rounded=0;orthogonalLoop=1;jettySize=auto;html=1;entryX=0;entryY=0.5;entryDx=0;entryDy=0;fontSize=13;fontStyle=0" parent="1" source="Xr2quWgWzoAM4Jd-oPhX-43" target="G61eTxJS0A9dMVI_lam1-42" edge="1">
          <mxGeometry relative="1" as="geometry">
            <Array as="points">
              <mxPoint x="280" y="270" />
              <mxPoint x="280" y="680" />
            </Array>
          </mxGeometry>
        </mxCell>
        <mxCell id="dpYsJd-5rGW1-rWkGQPt-6" style="edgeStyle=orthogonalEdgeStyle;rounded=0;orthogonalLoop=1;jettySize=auto;html=1;entryX=0;entryY=0.5;entryDx=0;entryDy=0;" parent="1" source="Xr2quWgWzoAM4Jd-oPhX-43" target="dpYsJd-5rGW1-rWkGQPt-4" edge="1">
          <mxGeometry relative="1" as="geometry">
            <Array as="points">
              <mxPoint x="280" y="270" />
              <mxPoint x="280" y="770" />
            </Array>
          </mxGeometry>
        </mxCell>
        <mxCell id="dpYsJd-5rGW1-rWkGQPt-8" style="edgeStyle=orthogonalEdgeStyle;rounded=0;orthogonalLoop=1;jettySize=auto;html=1;entryX=0;entryY=0.5;entryDx=0;entryDy=0;" parent="1" source="Xr2quWgWzoAM4Jd-oPhX-43" target="Xr2quWgWzoAM4Jd-oPhX-14" edge="1">
          <mxGeometry relative="1" as="geometry">
            <Array as="points">
              <mxPoint x="280" y="270" />
              <mxPoint x="280" y="430" />
            </Array>
          </mxGeometry>
        </mxCell>
        <mxCell id="dpYsJd-5rGW1-rWkGQPt-26" style="edgeStyle=orthogonalEdgeStyle;rounded=0;orthogonalLoop=1;jettySize=auto;html=1;entryX=0;entryY=0.5;entryDx=0;entryDy=0;" parent="1" source="Xr2quWgWzoAM4Jd-oPhX-43" target="G61eTxJS0A9dMVI_lam1-46" edge="1">
          <mxGeometry relative="1" as="geometry">
            <Array as="points">
              <mxPoint x="280" y="270" />
              <mxPoint x="280" y="940" />
            </Array>
          </mxGeometry>
        </mxCell>
        <mxCell id="dpYsJd-5rGW1-rWkGQPt-27" style="edgeStyle=orthogonalEdgeStyle;rounded=0;orthogonalLoop=1;jettySize=auto;html=1;entryX=0;entryY=0.5;entryDx=0;entryDy=0;" parent="1" source="Xr2quWgWzoAM4Jd-oPhX-43" target="G61eTxJS0A9dMVI_lam1-50" edge="1">
          <mxGeometry relative="1" as="geometry">
            <Array as="points">
              <mxPoint x="280" y="270" />
              <mxPoint x="280" y="1020" />
            </Array>
          </mxGeometry>
        </mxCell>
        <mxCell id="dpYsJd-5rGW1-rWkGQPt-28" style="edgeStyle=orthogonalEdgeStyle;rounded=0;orthogonalLoop=1;jettySize=auto;html=1;entryX=0;entryY=0.5;entryDx=0;entryDy=0;" parent="1" source="Xr2quWgWzoAM4Jd-oPhX-43" target="G61eTxJS0A9dMVI_lam1-16" edge="1">
          <mxGeometry relative="1" as="geometry">
            <Array as="points">
              <mxPoint x="280" y="270" />
              <mxPoint x="280" y="1100" />
            </Array>
          </mxGeometry>
        </mxCell>
        <mxCell id="dpYsJd-5rGW1-rWkGQPt-29" style="edgeStyle=orthogonalEdgeStyle;rounded=0;orthogonalLoop=1;jettySize=auto;html=1;entryX=0;entryY=0.5;entryDx=0;entryDy=0;" parent="1" source="Xr2quWgWzoAM4Jd-oPhX-43" target="Xr2quWgWzoAM4Jd-oPhX-6" edge="1">
          <mxGeometry relative="1" as="geometry">
            <Array as="points">
              <mxPoint x="280" y="270" />
              <mxPoint x="280" y="1180" />
            </Array>
          </mxGeometry>
        </mxCell>
        <mxCell id="dpYsJd-5rGW1-rWkGQPt-42" style="edgeStyle=orthogonalEdgeStyle;rounded=0;orthogonalLoop=1;jettySize=auto;html=1;entryX=0;entryY=0.5;entryDx=0;entryDy=0;" parent="1" source="Xr2quWgWzoAM4Jd-oPhX-43" target="Z_Ibb4aaYZXQ2sxeIjwM-12" edge="1">
          <mxGeometry relative="1" as="geometry">
            <Array as="points">
              <mxPoint x="280" y="270" />
              <mxPoint x="280" y="1425" />
            </Array>
          </mxGeometry>
        </mxCell>
        <mxCell id="dpYsJd-5rGW1-rWkGQPt-43" style="edgeStyle=orthogonalEdgeStyle;rounded=0;orthogonalLoop=1;jettySize=auto;html=1;entryX=0;entryY=0.5;entryDx=0;entryDy=0;" parent="1" source="Xr2quWgWzoAM4Jd-oPhX-43" target="Xr2quWgWzoAM4Jd-oPhX-76" edge="1">
          <mxGeometry relative="1" as="geometry">
            <Array as="points">
              <mxPoint x="280" y="270" />
              <mxPoint x="280" y="1503" />
            </Array>
          </mxGeometry>
        </mxCell>
        <mxCell id="dpYsJd-5rGW1-rWkGQPt-44" style="edgeStyle=orthogonalEdgeStyle;rounded=0;orthogonalLoop=1;jettySize=auto;html=1;entryX=0;entryY=0.5;entryDx=0;entryDy=0;" parent="1" source="Xr2quWgWzoAM4Jd-oPhX-43" target="dpYsJd-5rGW1-rWkGQPt-10" edge="1">
          <mxGeometry relative="1" as="geometry">
            <Array as="points">
              <mxPoint x="280" y="270" />
              <mxPoint x="280" y="1660" />
            </Array>
          </mxGeometry>
        </mxCell>
        <mxCell id="Xr2quWgWzoAM4Jd-oPhX-43" value="&lt;span&gt;&lt;font style=&quot;color: light-dark(rgb(255, 255, 255), rgb(0, 0, 0));&quot;&gt;FP1 : Commander et contrôler automatiquement les paramètres de l&#39;encollage&lt;/font&gt;&lt;/span&gt;" style="rounded=1;whiteSpace=wrap;html=1;fillColor=#1ba1e2;fontColor=#ffffff;strokeColor=#006EAF;fontFamily=Helvetica;fontSize=13;fontStyle=1" parent="1" vertex="1">
          <mxGeometry x="80" y="240" width="180" height="70" as="geometry" />
        </mxCell>
        <mxCell id="Xr2quWgWzoAM4Jd-oPhX-50" value="&lt;h1&gt;&lt;br&gt;&lt;/h1&gt;" style="text;html=1;align=center;verticalAlign=middle;whiteSpace=wrap;rounded=0;fontFamily=Helvetica;" parent="1" vertex="1">
          <mxGeometry x="810" y="170" width="270" height="30" as="geometry" />
        </mxCell>
        <mxCell id="Xr2quWgWzoAM4Jd-oPhX-55" value="&lt;h1&gt;&lt;b&gt;Fonctions&lt;/b&gt;&lt;/h1&gt;" style="rounded=0;whiteSpace=wrap;html=1;fontFamily=Helvetica;" parent="1" vertex="1">
          <mxGeometry x="80" y="155" width="480" height="60" as="geometry" />
        </mxCell>
        <mxCell id="Xr2quWgWzoAM4Jd-oPhX-56" value="&lt;h1&gt;&lt;b&gt;Solution techniques&lt;/b&gt;&lt;/h1&gt;" style="rounded=0;whiteSpace=wrap;html=1;fontFamily=Helvetica;" parent="1" vertex="1">
          <mxGeometry x="640" y="155" width="320" height="60" as="geometry" />
        </mxCell>
        <mxCell id="Xr2quWgWzoAM4Jd-oPhX-60" value="Raspberry Pi&lt;div&gt;(GCODE)&lt;/div&gt;" style="rounded=1;whiteSpace=wrap;html=1;fontFamily=Helvetica;fontSize=13;fontStyle=0" parent="1" vertex="1">
          <mxGeometry x="758.87" y="1150" width="160" height="60" as="geometry" />
        </mxCell>
        <mxCell id="Xr2quWgWzoAM4Jd-oPhX-64" value="Capteur de niveau" style="rounded=1;whiteSpace=wrap;html=1;fontFamily=Helvetica;fontSize=13;" parent="1" vertex="1">
          <mxGeometry x="758.6" y="1720" width="160.27" height="60" as="geometry" />
        </mxCell>
        <mxCell id="Xr2quWgWzoAM4Jd-oPhX-66" value="Regulateur de temperature" style="rounded=1;whiteSpace=wrap;html=1;fontFamily=Helvetica;fontSize=13;fontStyle=0" parent="1" vertex="1">
          <mxGeometry x="760.86" y="400" width="162.25" height="60" as="geometry" />
        </mxCell>
        <mxCell id="Xr2quWgWzoAM4Jd-oPhX-68" value="Bras Robot UR5" style="rounded=1;whiteSpace=wrap;html=1;fontFamily=Helvetica;fontSize=13;fontStyle=0" parent="1" vertex="1">
          <mxGeometry x="760.86" y="1070" width="160" height="60" as="geometry" />
        </mxCell>
        <mxCell id="Xr2quWgWzoAM4Jd-oPhX-70" value="Réservoir central" style="rounded=1;whiteSpace=wrap;html=1;fontFamily=Helvetica;fontSize=13;" parent="1" vertex="1">
          <mxGeometry x="758.6" y="2010" width="160.27" height="60" as="geometry" />
        </mxCell>
        <mxCell id="Xr2quWgWzoAM4Jd-oPhX-72" value="Pompe péristaltique" style="rounded=1;whiteSpace=wrap;html=1;fontFamily=Helvetica;fontSize=13;" parent="1" vertex="1">
          <mxGeometry x="760" y="1910" width="158.87" height="60" as="geometry" />
        </mxCell>
        <mxCell id="Xr2quWgWzoAM4Jd-oPhX-79" style="edgeStyle=orthogonalEdgeStyle;rounded=0;orthogonalLoop=1;jettySize=auto;html=1;fontFamily=Helvetica;fontSize=13;fontStyle=0" parent="1" source="Xr2quWgWzoAM4Jd-oPhX-76" target="Xr2quWgWzoAM4Jd-oPhX-78" edge="1">
          <mxGeometry relative="1" as="geometry" />
        </mxCell>
        <mxCell id="Xr2quWgWzoAM4Jd-oPhX-81" style="edgeStyle=orthogonalEdgeStyle;rounded=0;orthogonalLoop=1;jettySize=auto;html=1;entryX=0;entryY=0.5;entryDx=0;entryDy=0;fontFamily=Helvetica;fontSize=13;fontStyle=0" parent="1" source="Xr2quWgWzoAM4Jd-oPhX-76" target="Xr2quWgWzoAM4Jd-oPhX-80" edge="1">
          <mxGeometry relative="1" as="geometry">
            <mxPoint x="873.49" y="1590" as="targetPoint" />
            <Array as="points">
              <mxPoint x="682" y="1503" />
              <mxPoint x="682" y="1575" />
            </Array>
          </mxGeometry>
        </mxCell>
        <mxCell id="Xr2quWgWzoAM4Jd-oPhX-76" value="&lt;span&gt;FC12 : Vérifier la qualité de l&#39;encollage&lt;/span&gt;" style="rounded=1;whiteSpace=wrap;html=1;labelBackgroundColor=default;labelBorderColor=none;textShadow=0;fillColor=#dae8fc;strokeColor=#6c8ebf;fontFamily=Helvetica;fontSize=13;fontStyle=0" parent="1" vertex="1">
          <mxGeometry x="321.68" y="1475" width="190.5" height="55" as="geometry" />
        </mxCell>
        <mxCell id="Xr2quWgWzoAM4Jd-oPhX-78" value="Caméra haute résolution" style="rounded=1;whiteSpace=wrap;html=1;fontFamily=Helvetica;fontSize=13;fontStyle=0" parent="1" vertex="1">
          <mxGeometry x="760" y="1477.5" width="159.99" height="50" as="geometry" />
        </mxCell>
        <mxCell id="Xr2quWgWzoAM4Jd-oPhX-80" value="Éclairage LED" style="rounded=1;whiteSpace=wrap;html=1;fontFamily=Helvetica;fontSize=13;fontStyle=0" parent="1" vertex="1">
          <mxGeometry x="760" y="1550" width="159" height="50" as="geometry" />
        </mxCell>
        <mxCell id="2b7BFw_aG3oZxj_yZG9y-20" style="edgeStyle=orthogonalEdgeStyle;rounded=0;orthogonalLoop=1;jettySize=auto;html=1;entryX=0;entryY=0.5;entryDx=0;entryDy=0;" parent="1" source="G61eTxJS0A9dMVI_lam1-1" target="2b7BFw_aG3oZxj_yZG9y-15" edge="1">
          <mxGeometry relative="1" as="geometry" />
        </mxCell>
        <mxCell id="2b7BFw_aG3oZxj_yZG9y-21" style="edgeStyle=orthogonalEdgeStyle;rounded=0;orthogonalLoop=1;jettySize=auto;html=1;entryX=0;entryY=0.5;entryDx=0;entryDy=0;" parent="1" source="G61eTxJS0A9dMVI_lam1-1" target="2b7BFw_aG3oZxj_yZG9y-17" edge="1">
          <mxGeometry relative="1" as="geometry" />
        </mxCell>
        <mxCell id="2b7BFw_aG3oZxj_yZG9y-23" style="edgeStyle=orthogonalEdgeStyle;rounded=0;orthogonalLoop=1;jettySize=auto;html=1;entryX=0;entryY=0.5;entryDx=0;entryDy=0;" parent="1" source="G61eTxJS0A9dMVI_lam1-1" target="G61eTxJS0A9dMVI_lam1-58" edge="1">
          <mxGeometry relative="1" as="geometry" />
        </mxCell>
        <mxCell id="dpYsJd-5rGW1-rWkGQPt-1" style="edgeStyle=orthogonalEdgeStyle;rounded=0;orthogonalLoop=1;jettySize=auto;html=1;entryX=0;entryY=0.5;entryDx=0;entryDy=0;" parent="1" source="G61eTxJS0A9dMVI_lam1-1" target="2b7BFw_aG3oZxj_yZG9y-24" edge="1">
          <mxGeometry relative="1" as="geometry" />
        </mxCell>
        <mxCell id="G61eTxJS0A9dMVI_lam1-1" value="&lt;span&gt;&lt;font style=&quot;color: rgb(255, 255, 255);&quot;&gt;FP2 :&amp;nbsp; Alimentation automatique de la colle&lt;/font&gt;&lt;/span&gt;" style="rounded=1;whiteSpace=wrap;html=1;fillColor=#1ba1e2;fontColor=#ffffff;strokeColor=#006EAF;fontFamily=Helvetica;fontSize=13;fontStyle=1" parent="1" vertex="1">
          <mxGeometry x="80" y="1720" width="160.85" height="60" as="geometry" />
        </mxCell>
        <mxCell id="G61eTxJS0A9dMVI_lam1-30" style="edgeStyle=orthogonalEdgeStyle;rounded=0;orthogonalLoop=1;jettySize=auto;html=1;fontSize=13;fontStyle=0" parent="1" source="G61eTxJS0A9dMVI_lam1-6" target="G61eTxJS0A9dMVI_lam1-9" edge="1">
          <mxGeometry relative="1" as="geometry" />
        </mxCell>
        <mxCell id="G61eTxJS0A9dMVI_lam1-6" value="&lt;div&gt;&lt;font&gt;FC1&lt;/font&gt;&lt;span style=&quot;background-color: light-dark(#ffffff, var(--ge-dark-color, #121212)); color: light-dark(rgb(0, 0, 0), rgb(255, 255, 255));&quot;&gt;&amp;nbsp;: Communiquer avec le Raspberry&lt;/span&gt;&lt;/div&gt;" style="rounded=1;whiteSpace=wrap;html=1;labelBackgroundColor=default;labelBorderColor=none;textShadow=0;fillColor=#dae8fc;strokeColor=#6c8ebf;fontFamily=Helvetica;fontSize=13;fontStyle=0" parent="1" vertex="1">
          <mxGeometry x="319.5" y="320" width="200" height="60" as="geometry" />
        </mxCell>
        <mxCell id="G61eTxJS0A9dMVI_lam1-9" value="Cable ethernet RJ45" style="rounded=1;whiteSpace=wrap;html=1;fontSize=13;fontStyle=0" parent="1" vertex="1">
          <mxGeometry x="760.99" y="320" width="160" height="60" as="geometry" />
        </mxCell>
        <mxCell id="G61eTxJS0A9dMVI_lam1-31" style="edgeStyle=orthogonalEdgeStyle;rounded=0;orthogonalLoop=1;jettySize=auto;html=1;entryX=0;entryY=0.5;entryDx=0;entryDy=0;fontSize=13;fontStyle=0" parent="1" source="G61eTxJS0A9dMVI_lam1-11" target="G61eTxJS0A9dMVI_lam1-13" edge="1">
          <mxGeometry relative="1" as="geometry" />
        </mxCell>
        <mxCell id="G61eTxJS0A9dMVI_lam1-11" value="&lt;div&gt;&lt;font&gt;FC3 : Alimenter en énergie électrique&lt;/font&gt;&lt;/div&gt;" style="rounded=1;whiteSpace=wrap;html=1;labelBackgroundColor=default;labelBorderColor=none;textShadow=0;fillColor=#dae8fc;strokeColor=#6c8ebf;fontFamily=Helvetica;fontSize=13;fontStyle=0" parent="1" vertex="1">
          <mxGeometry x="321.68" y="480" width="200" height="60" as="geometry" />
        </mxCell>
        <mxCell id="G61eTxJS0A9dMVI_lam1-13" value="Réseau électrique&amp;nbsp;&lt;div&gt;continue (DC)&lt;/div&gt;" style="rounded=1;whiteSpace=wrap;html=1;fontSize=13;fontStyle=0" parent="1" vertex="1">
          <mxGeometry x="760.99" y="480" width="160" height="60" as="geometry" />
        </mxCell>
        <mxCell id="G61eTxJS0A9dMVI_lam1-16" value="&lt;font&gt;FC9 :&amp;nbsp;&lt;/font&gt;&lt;span style=&quot;background-color: light-dark(#ffffff, var(--ge-dark-color, #121212)); color: light-dark(rgb(0, 0, 0), rgb(255, 255, 255));&quot;&gt;Transférer les capots entre les différentes étapes&lt;/span&gt;" style="rounded=1;whiteSpace=wrap;html=1;labelBackgroundColor=default;labelBorderColor=none;textShadow=0;fillColor=#dae8fc;strokeColor=#6c8ebf;fontFamily=Helvetica;fontSize=13;fontStyle=0" parent="1" vertex="1">
          <mxGeometry x="321" y="1070" width="199.5" height="60" as="geometry" />
        </mxCell>
        <mxCell id="G61eTxJS0A9dMVI_lam1-26" style="edgeStyle=orthogonalEdgeStyle;rounded=0;orthogonalLoop=1;jettySize=auto;html=1;exitX=1;exitY=0.5;exitDx=0;exitDy=0;fontSize=13;fontStyle=0" parent="1" source="G61eTxJS0A9dMVI_lam1-16" target="Xr2quWgWzoAM4Jd-oPhX-68" edge="1">
          <mxGeometry relative="1" as="geometry">
            <mxPoint x="687" y="1100" as="sourcePoint" />
          </mxGeometry>
        </mxCell>
        <mxCell id="G61eTxJS0A9dMVI_lam1-41" style="edgeStyle=orthogonalEdgeStyle;rounded=0;orthogonalLoop=1;jettySize=auto;html=1;entryX=0;entryY=0.5;entryDx=0;entryDy=0;fontSize=13;fontStyle=0" parent="1" source="G61eTxJS0A9dMVI_lam1-38" target="G61eTxJS0A9dMVI_lam1-40" edge="1">
          <mxGeometry relative="1" as="geometry" />
        </mxCell>
        <mxCell id="G61eTxJS0A9dMVI_lam1-38" value="&lt;div&gt;&lt;font&gt;FC4 :&amp;nbsp;Supporter et assurer l’appui plan&amp;nbsp;&lt;/font&gt;&lt;/div&gt;" style="rounded=1;whiteSpace=wrap;html=1;labelBackgroundColor=default;labelBorderColor=none;textShadow=0;fillColor=#dae8fc;strokeColor=#6c8ebf;fontFamily=Helvetica;fontSize=13;fontStyle=0" parent="1" vertex="1">
          <mxGeometry x="319.5" y="560" width="200" height="60" as="geometry" />
        </mxCell>
        <mxCell id="G61eTxJS0A9dMVI_lam1-40" value="Support de l&#39;encolleuse stable (Planéité de base d&#39;appui)" style="rounded=1;whiteSpace=wrap;html=1;fontSize=13;fontStyle=0" parent="1" vertex="1">
          <mxGeometry x="760.99" y="560" width="160" height="60" as="geometry" />
        </mxCell>
        <mxCell id="G61eTxJS0A9dMVI_lam1-45" style="edgeStyle=orthogonalEdgeStyle;rounded=0;orthogonalLoop=1;jettySize=auto;html=1;entryX=0;entryY=0.5;entryDx=0;entryDy=0;fontSize=13;fontStyle=0" parent="1" source="G61eTxJS0A9dMVI_lam1-42" target="G61eTxJS0A9dMVI_lam1-44" edge="1">
          <mxGeometry relative="1" as="geometry" />
        </mxCell>
        <mxCell id="G61eTxJS0A9dMVI_lam1-42" value="&lt;div&gt;&lt;font&gt;FC5&lt;/font&gt;&lt;span style=&quot;background-color: light-dark(#ffffff, var(--ge-dark-color, #121212)); color: light-dark(rgb(0, 0, 0), rgb(255, 255, 255));&quot;&gt;&amp;nbsp;:&amp;nbsp;Respecter l’environnement&lt;/span&gt;&lt;/div&gt;" style="rounded=1;whiteSpace=wrap;html=1;labelBackgroundColor=default;labelBorderColor=none;textShadow=0;fillColor=#dae8fc;strokeColor=#6c8ebf;fontFamily=Helvetica;fontSize=13;fontStyle=0" parent="1" vertex="1">
          <mxGeometry x="320.5" y="650" width="200" height="60" as="geometry" />
        </mxCell>
        <mxCell id="G61eTxJS0A9dMVI_lam1-44" value="Guides de bonnes pratiques (documents ou posters)" style="rounded=1;whiteSpace=wrap;html=1;fontSize=13;fontStyle=0" parent="1" vertex="1">
          <mxGeometry x="760.99" y="650" width="160" height="60" as="geometry" />
        </mxCell>
        <mxCell id="G61eTxJS0A9dMVI_lam1-49" style="edgeStyle=orthogonalEdgeStyle;rounded=0;orthogonalLoop=1;jettySize=auto;html=1;entryX=0;entryY=0.5;entryDx=0;entryDy=0;exitX=1;exitY=0.5;exitDx=0;exitDy=0;fontSize=13;fontStyle=0" parent="1" source="G61eTxJS0A9dMVI_lam1-46" target="G61eTxJS0A9dMVI_lam1-48" edge="1">
          <mxGeometry relative="1" as="geometry">
            <mxPoint x="538.74" y="990" as="sourcePoint" />
          </mxGeometry>
        </mxCell>
        <mxCell id="G61eTxJS0A9dMVI_lam1-46" value="&lt;div&gt;&lt;font&gt;FC7&lt;/font&gt;&lt;span style=&quot;color: light-dark(rgb(0, 0, 0), rgb(255, 255, 255)); background-color: light-dark(#ffffff, var(--ge-dark-color, #121212));&quot;&gt;&amp;nbsp;:&amp;nbsp;&lt;/span&gt;&lt;span style=&quot;color: light-dark(rgb(0, 0, 0), rgb(255, 255, 255)); background-color: light-dark(#ffffff, var(--ge-dark-color, #121212));&quot;&gt;Respecter les contraintes de production de l’usine du futur de Rouen&lt;/span&gt;&lt;/div&gt;" style="rounded=1;whiteSpace=wrap;html=1;labelBackgroundColor=default;labelBorderColor=none;textShadow=0;fillColor=#dae8fc;strokeColor=#6c8ebf;fontFamily=Helvetica;fontSize=13;fontStyle=0" parent="1" vertex="1">
          <mxGeometry x="320.75" y="910" width="200" height="60" as="geometry" />
        </mxCell>
        <mxCell id="G61eTxJS0A9dMVI_lam1-48" value="Liaison virtuel" style="rounded=1;whiteSpace=wrap;html=1;fontSize=13;fontStyle=0" parent="1" vertex="1">
          <mxGeometry x="759.86" y="910" width="160" height="60" as="geometry" />
        </mxCell>
        <mxCell id="G61eTxJS0A9dMVI_lam1-53" style="edgeStyle=orthogonalEdgeStyle;rounded=0;orthogonalLoop=1;jettySize=auto;html=1;entryX=0;entryY=0.5;entryDx=0;entryDy=0;fontSize=13;fontStyle=0" parent="1" source="G61eTxJS0A9dMVI_lam1-50" target="G61eTxJS0A9dMVI_lam1-52" edge="1">
          <mxGeometry relative="1" as="geometry" />
        </mxCell>
        <mxCell id="G61eTxJS0A9dMVI_lam1-50" value="&lt;div&gt;&lt;font&gt;FC8&lt;/font&gt;&lt;span style=&quot;background-color: light-dark(#ffffff, var(--ge-dark-color, #121212)); color: light-dark(rgb(0, 0, 0), rgb(255, 255, 255));&quot;&gt;&amp;nbsp;:&amp;nbsp;&lt;/span&gt;&lt;span style=&quot;background-color: light-dark(#ffffff, var(--ge-dark-color, #121212));&quot;&gt;Commander manuellement l’encolleuse CR-20 (mode maintenance)&lt;/span&gt;&lt;/div&gt;" style="rounded=1;whiteSpace=wrap;html=1;labelBackgroundColor=default;labelBorderColor=none;textShadow=0;fillColor=#dae8fc;strokeColor=#6c8ebf;fontFamily=Helvetica;fontSize=13;fontStyle=0" parent="1" vertex="1">
          <mxGeometry x="322.74" y="990" width="200" height="60" as="geometry" />
        </mxCell>
        <mxCell id="G61eTxJS0A9dMVI_lam1-52" value="IHM permettant de commander les déplacement (X,Y,Z)" style="rounded=1;whiteSpace=wrap;html=1;fontFamily=Helvetica;fontSize=13;fontStyle=0" parent="1" vertex="1">
          <mxGeometry x="759.74" y="990" width="160" height="60" as="geometry" />
        </mxCell>
        <mxCell id="G61eTxJS0A9dMVI_lam1-60" style="edgeStyle=orthogonalEdgeStyle;rounded=0;orthogonalLoop=1;jettySize=auto;html=1;entryX=0;entryY=0.5;entryDx=0;entryDy=0;fontSize=13;" parent="1" source="G61eTxJS0A9dMVI_lam1-58" target="Xr2quWgWzoAM4Jd-oPhX-70" edge="1">
          <mxGeometry relative="1" as="geometry" />
        </mxCell>
        <mxCell id="G61eTxJS0A9dMVI_lam1-58" value="&lt;div&gt;&lt;font&gt;FC17&lt;/font&gt;&lt;span style=&quot;color: light-dark(rgb(0, 0, 0), rgb(255, 255, 255)); background-color: light-dark(#ffffff, var(--ge-dark-color, #121212));&quot;&gt;&amp;nbsp;:&amp;nbsp;&lt;/span&gt;&lt;span style=&quot;color: light-dark(rgb(0, 0, 0), rgb(255, 255, 255)); background-color: light-dark(#ffffff, var(--ge-dark-color, #121212));&quot;&gt;Aucun arrêt de la ligne de production&lt;/span&gt;&lt;/div&gt;" style="rounded=1;whiteSpace=wrap;html=1;labelBackgroundColor=default;labelBorderColor=none;textShadow=0;fillColor=#dae8fc;strokeColor=#6c8ebf;fontFamily=Helvetica;fontSize=13;" parent="1" vertex="1">
          <mxGeometry x="321.35" y="2010" width="200" height="60" as="geometry" />
        </mxCell>
        <mxCell id="G61eTxJS0A9dMVI_lam1-64" value="" style="endArrow=none;html=1;rounded=0;dashed=1;" parent="1" edge="1">
          <mxGeometry width="50" height="50" relative="1" as="geometry">
            <mxPoint x="600" y="2280" as="sourcePoint" />
            <mxPoint x="600" y="155" as="targetPoint" />
          </mxGeometry>
        </mxCell>
        <mxCell id="Z_Ibb4aaYZXQ2sxeIjwM-11" value="&lt;h1&gt;&lt;b&gt;FAST de l&#39;Encolleuse automatisée&lt;/b&gt;&lt;/h1&gt;" style="rounded=0;whiteSpace=wrap;html=1;fontFamily=Helvetica;" parent="1" vertex="1">
          <mxGeometry x="80" y="80" width="880" height="60" as="geometry" />
        </mxCell>
        <mxCell id="Z_Ibb4aaYZXQ2sxeIjwM-15" style="edgeStyle=orthogonalEdgeStyle;rounded=0;orthogonalLoop=1;jettySize=auto;html=1;entryX=0;entryY=0.5;entryDx=0;entryDy=0;fontSize=13;fontStyle=0" parent="1" source="Z_Ibb4aaYZXQ2sxeIjwM-12" target="Z_Ibb4aaYZXQ2sxeIjwM-14" edge="1">
          <mxGeometry relative="1" as="geometry" />
        </mxCell>
        <mxCell id="Z_Ibb4aaYZXQ2sxeIjwM-12" value="&lt;span&gt;FC11 : Lecture/Ecriture&amp;nbsp;&lt;/span&gt;&lt;span lang=&quot;FR&quot; style=&quot;font-family: Calibri, sans-serif;&quot;&gt;des informations&amp;nbsp;&lt;/span&gt;&lt;span&gt;sur la puce RFID&lt;/span&gt;" style="rounded=1;whiteSpace=wrap;html=1;labelBackgroundColor=default;labelBorderColor=none;textShadow=0;fillColor=#dae8fc;strokeColor=#6c8ebf;fontFamily=Helvetica;fontSize=13;fontStyle=0" parent="1" vertex="1">
          <mxGeometry x="321.68" y="1395" width="200" height="60" as="geometry" />
        </mxCell>
        <mxCell id="Z_Ibb4aaYZXQ2sxeIjwM-14" value="Lecteur/Graveur RFID" style="rounded=1;whiteSpace=wrap;html=1;labelBackgroundColor=default;labelBorderColor=none;textShadow=0;fontFamily=Helvetica;fontSize=13;fontStyle=0" parent="1" vertex="1">
          <mxGeometry x="759.93" y="1400" width="160.07" height="50" as="geometry" />
        </mxCell>
        <mxCell id="2b7BFw_aG3oZxj_yZG9y-18" style="edgeStyle=orthogonalEdgeStyle;rounded=0;orthogonalLoop=1;jettySize=auto;html=1;entryX=0;entryY=0.5;entryDx=0;entryDy=0;" parent="1" source="2b7BFw_aG3oZxj_yZG9y-15" target="Xr2quWgWzoAM4Jd-oPhX-64" edge="1">
          <mxGeometry relative="1" as="geometry" />
        </mxCell>
        <mxCell id="2b7BFw_aG3oZxj_yZG9y-15" value="&lt;div&gt;&lt;font&gt;FC14&lt;/font&gt;&lt;span style=&quot;color: light-dark(rgb(0, 0, 0), rgb(255, 255, 255)); background-color: light-dark(#ffffff, var(--ge-dark-color, #121212));&quot;&gt;&amp;nbsp;:&amp;nbsp;&lt;/span&gt;&lt;span style=&quot;color: light-dark(rgb(0, 0, 0), rgb(255, 255, 255)); background-color: light-dark(#ffffff, var(--ge-dark-color, #121212));&quot;&gt;Surveiller en temps réel le niveau de colle dans le réservoir&lt;/span&gt;&lt;/div&gt;" style="rounded=1;whiteSpace=wrap;html=1;labelBackgroundColor=default;labelBorderColor=none;textShadow=0;fillColor=#dae8fc;strokeColor=#6c8ebf;fontFamily=Helvetica;fontSize=13;" parent="1" vertex="1">
          <mxGeometry x="321.35" y="1720" width="200" height="60" as="geometry" />
        </mxCell>
        <mxCell id="2b7BFw_aG3oZxj_yZG9y-16" value="Capteur laser" style="rounded=1;whiteSpace=wrap;html=1;fontFamily=Helvetica;fontSize=13;" parent="1" vertex="1">
          <mxGeometry x="760" y="1810" width="158.87" height="60" as="geometry" />
        </mxCell>
        <mxCell id="2b7BFw_aG3oZxj_yZG9y-19" style="edgeStyle=orthogonalEdgeStyle;rounded=0;orthogonalLoop=1;jettySize=auto;html=1;" parent="1" source="2b7BFw_aG3oZxj_yZG9y-17" target="2b7BFw_aG3oZxj_yZG9y-16" edge="1">
          <mxGeometry relative="1" as="geometry" />
        </mxCell>
        <mxCell id="2b7BFw_aG3oZxj_yZG9y-17" value="&lt;div&gt;&lt;font&gt;FC15&lt;/font&gt;&lt;span style=&quot;color: light-dark(rgb(0, 0, 0), rgb(255, 255, 255)); background-color: light-dark(#ffffff, var(--ge-dark-color, #121212));&quot;&gt;&amp;nbsp;:&amp;nbsp;&lt;/span&gt;&lt;span style=&quot;color: light-dark(rgb(0, 0, 0), rgb(255, 255, 255)); background-color: light-dark(#ffffff, var(--ge-dark-color, #121212));&quot;&gt;Surveiller en temps réel le niveau de colle dans la seringue&lt;/span&gt;&lt;/div&gt;" style="rounded=1;whiteSpace=wrap;html=1;labelBackgroundColor=default;labelBorderColor=none;textShadow=0;fillColor=#dae8fc;strokeColor=#6c8ebf;fontFamily=Helvetica;fontSize=13;" parent="1" vertex="1">
          <mxGeometry x="321.35" y="1810" width="200" height="60" as="geometry" />
        </mxCell>
        <mxCell id="dpYsJd-5rGW1-rWkGQPt-2" style="edgeStyle=orthogonalEdgeStyle;rounded=0;orthogonalLoop=1;jettySize=auto;html=1;entryX=0;entryY=0.5;entryDx=0;entryDy=0;" parent="1" source="2b7BFw_aG3oZxj_yZG9y-24" target="Xr2quWgWzoAM4Jd-oPhX-72" edge="1">
          <mxGeometry relative="1" as="geometry" />
        </mxCell>
        <mxCell id="2b7BFw_aG3oZxj_yZG9y-24" value="&lt;div&gt;&lt;font&gt;FC16&lt;/font&gt;&lt;span style=&quot;color: light-dark(rgb(0, 0, 0), rgb(255, 255, 255)); background-color: light-dark(#ffffff, var(--ge-dark-color, #121212));&quot;&gt;&amp;nbsp;: Maintenir la continuité du flux dans la seringue&lt;/span&gt;&lt;/div&gt;" style="rounded=1;whiteSpace=wrap;html=1;labelBackgroundColor=default;labelBorderColor=none;textShadow=0;fillColor=#dae8fc;strokeColor=#6c8ebf;fontFamily=Helvetica;fontSize=13;" parent="1" vertex="1">
          <mxGeometry x="321.35" y="1910" width="200" height="60" as="geometry" />
        </mxCell>
        <mxCell id="dpYsJd-5rGW1-rWkGQPt-7" style="edgeStyle=orthogonalEdgeStyle;rounded=0;orthogonalLoop=1;jettySize=auto;html=1;" parent="1" source="dpYsJd-5rGW1-rWkGQPt-4" target="dpYsJd-5rGW1-rWkGQPt-5" edge="1">
          <mxGeometry relative="1" as="geometry" />
        </mxCell>
        <mxCell id="dpYsJd-5rGW1-rWkGQPt-24" style="edgeStyle=orthogonalEdgeStyle;rounded=0;orthogonalLoop=1;jettySize=auto;html=1;entryX=0;entryY=0.5;entryDx=0;entryDy=0;" parent="1" source="dpYsJd-5rGW1-rWkGQPt-4" target="dpYsJd-5rGW1-rWkGQPt-16" edge="1">
          <mxGeometry relative="1" as="geometry" />
        </mxCell>
        <mxCell id="dpYsJd-5rGW1-rWkGQPt-4" value="&lt;div&gt;&lt;font&gt;FC6&lt;/font&gt;&lt;span style=&quot;background-color: light-dark(#ffffff, var(--ge-dark-color, #121212)); color: light-dark(rgb(0, 0, 0), rgb(255, 255, 255));&quot;&gt;&amp;nbsp;:&amp;nbsp;Respecter les normes d&#39;hygiène et de sécurité&lt;/span&gt;&lt;/div&gt;" style="rounded=1;whiteSpace=wrap;html=1;labelBackgroundColor=default;labelBorderColor=none;textShadow=0;fillColor=#dae8fc;strokeColor=#6c8ebf;fontFamily=Helvetica;fontSize=13;fontStyle=0" parent="1" vertex="1">
          <mxGeometry x="320.5" y="740" width="200" height="60" as="geometry" />
        </mxCell>
        <mxCell id="dpYsJd-5rGW1-rWkGQPt-5" value="Equipements pour l&#39;hygiène" style="rounded=1;whiteSpace=wrap;html=1;fontSize=13;fontStyle=0" parent="1" vertex="1">
          <mxGeometry x="759.74" y="740" width="160" height="60" as="geometry" />
        </mxCell>
        <mxCell id="dpYsJd-5rGW1-rWkGQPt-11" style="edgeStyle=orthogonalEdgeStyle;rounded=0;orthogonalLoop=1;jettySize=auto;html=1;" parent="1" source="dpYsJd-5rGW1-rWkGQPt-10" edge="1">
          <mxGeometry relative="1" as="geometry">
            <mxPoint x="755.63" y="1659.9999999999995" as="targetPoint" />
          </mxGeometry>
        </mxCell>
        <mxCell id="dpYsJd-5rGW1-rWkGQPt-10" value="&lt;div&gt;&lt;font&gt;FC13&lt;/font&gt;&lt;span style=&quot;color: light-dark(rgb(0, 0, 0), rgb(255, 255, 255)); background-color: light-dark(#ffffff, var(--ge-dark-color, #121212));&quot;&gt;&amp;nbsp;:&amp;nbsp;&lt;/span&gt;&lt;span style=&quot;color: light-dark(rgb(0, 0, 0), rgb(255, 255, 255)); background-color: light-dark(#ffffff, var(--ge-dark-color, #121212));&quot;&gt;Superviser la chaine de production&lt;/span&gt;&lt;/div&gt;" style="rounded=1;whiteSpace=wrap;html=1;labelBackgroundColor=default;labelBorderColor=none;textShadow=0;fillColor=#dae8fc;strokeColor=#6c8ebf;fontFamily=Helvetica;fontSize=13;" parent="1" vertex="1">
          <mxGeometry x="320.13" y="1630" width="192.62" height="60" as="geometry" />
        </mxCell>
        <mxCell id="dpYsJd-5rGW1-rWkGQPt-12" value="Poste de supervision (assisté par un opérateur)" style="rounded=1;whiteSpace=wrap;html=1;fontFamily=Helvetica;fontSize=13;fontStyle=0" parent="1" vertex="1">
          <mxGeometry x="760" y="1630" width="159" height="60" as="geometry" />
        </mxCell>
        <mxCell id="dpYsJd-5rGW1-rWkGQPt-16" value="Mesures de sécurité physique" style="rounded=1;whiteSpace=wrap;html=1;fontSize=13;fontStyle=0" parent="1" vertex="1">
          <mxGeometry x="759.86" y="820" width="160" height="60" as="geometry" />
        </mxCell>
        <mxCell id="dpYsJd-5rGW1-rWkGQPt-35" value="Seringue avec piston" style="rounded=1;whiteSpace=wrap;html=1;fontFamily=Helvetica;fontSize=13;" parent="1" vertex="1">
          <mxGeometry x="760.99" y="1231" width="159.01" height="60" as="geometry" />
        </mxCell>
        <mxCell id="dpYsJd-5rGW1-rWkGQPt-36" value="Imprimante CR-20" style="rounded=1;whiteSpace=wrap;html=1;fontFamily=Helvetica;fontSize=13;" parent="1" vertex="1">
          <mxGeometry x="760.99" y="1321" width="159.01" height="60" as="geometry" />
        </mxCell>
      </root>
    </mxGraphModel>
  </diagram>
</mxfile>
